<svg xmlns="http://www.w3.org/2000/svg" viewBox="0 0 100 100" width="64" height="64">
  <path d="M30 20 L70 20 L70 80 L30 80 Z" fill="none" stroke="#1a365d" stroke-width="3"/>
  <path d="M40 30 L60 30 M40 40 L60 40 M40 50 L50 50" stroke="#1a365d" stroke-width="3"/>
  <path d="M20 30 L25 30 M20 40 L25 40 M20 50 L25 50 M20 60 L25 60 M20 70 L25 70" stroke="#1a365d" stroke-width="2"/>
  <path d="M75 30 L80 30 M75 40 L80 40 M75 50 L80 50 M75 60 L80 60 M75 70 L80 70" stroke="#1a365d" stroke-width="2"/>
</svg>