<?xml version="1.0" encoding="UTF-8" standalone="no"?>
<svg width="800" height="500" xmlns="http://www.w3.org/2000/svg">
  <!-- 背景グラデーション -->
  <defs>
    <linearGradient id="bgGradient" x1="0%" y1="0%" x2="100%" y2="100%">
      <stop offset="0%" style="stop-color:#e8fff2;stop-opacity:1" />
      <stop offset="100%" style="stop-color:#f0e6ff;stop-opacity:1" />
    </linearGradient>
  </defs>
  
  <!-- 背景 -->
  <rect width="100%" height="100%" fill="url(#bgGradient)" rx="10" ry="10" />
  
  <!-- エディタ風のUIイメージ -->
  <rect x="50" y="50" width="700" height="400" rx="8" ry="8" fill="white" stroke="#e0e0e0" stroke-width="1" />
  
  <!-- ウィンドウコントロールボタン -->
  <circle cx="80" cy="80" r="10" fill="#ff5f56" />
  <circle cx="110" cy="80" r="10" fill="#ffbd2e" />
  <circle cx="140" cy="80" r="10" fill="#27c93f" />
  
  <!-- サイドバー -->
  <rect x="50" y="110" width="200" height="340" fill="#f8f9fa" />
  
  <!-- ファイル一覧 -->
  <rect x="70" y="140" width="160" height="30" fill="#e9ecef" rx="4" ry="4" />
  <rect x="70" y="180" width="160" height="30" fill="white" rx="4" ry="4" stroke="#e0e0e0" stroke-width="1" />
  <rect x="70" y="220" width="160" height="30" fill="white" rx="4" ry="4" stroke="#e0e0e0" stroke-width="1" />
  
  <!-- コンテンツエリア -->
  <rect x="280" y="140" width="450" height="40" fill="#f8f9fa" rx="4" ry="4" />
  <rect x="280" y="190" width="200" height="30" fill="#e9ecef" rx="4" ry="4" />
  <rect x="280" y="230" width="420" height="30" fill="white" rx="4" ry="4" stroke="#e0e0e0" stroke-width="1" />
  <rect x="280" y="270" width="380" height="30" fill="white" rx="4" ry="4" stroke="#e0e0e0" stroke-width="1" />
  <rect x="280" y="310" width="420" height="30" fill="white" rx="4" ry="4" stroke="#e0e0e0" stroke-width="1" />
  <rect x="280" y="350" width="300" height="30" fill="white" rx="4" ry="4" stroke="#e0e0e0" stroke-width="1" />
</svg>